<svg width="50" height="39" viewBox="0 0 50 39" fill="none" xmlns="http://www.w3.org/2000/svg">
<g clip-path="url(#clip0_38_367)">
<path fill-rule="evenodd" clip-rule="evenodd" d="M49.939 38.6903C41.6244 35.3605 39.7134 16.6713 40.6878 8.73135C35.4732 11.7034 11.3427 7.88854 0 0.748444C4.59512 15.8254 28.7512 16.4748 38.528 14.4744C38.8683 23.4184 42.2646 38.9466 49.939 38.6903Z" fill="white"/>
<path fill-rule="evenodd" clip-rule="evenodd" d="M38.0781 20.8869C36.7891 21.1939 26.7537 23.4491 19.283 22.1488C11.2866 20.7579 6.78052 12.6308 6.78052 12.6308C15.083 16.8448 33.2111 17.6676 37.5123 15.7441L37.5537 16.2046C37.6653 17.7756 37.8403 19.3384 38.0781 20.8869Z" fill="white"/>
<path fill-rule="evenodd" clip-rule="evenodd" d="M39.6939 28.2281L39.7817 28.5919C25.0183 33.5628 18.5622 31.5564 14.0391 23.5366C19.3549 25.8747 34.6903 24.8062 38.461 23.1298C38.7049 24.4055 38.9891 25.6521 39.3049 26.8434C39.4269 27.2978 39.5561 27.7675 39.6939 28.2281Z" fill="white"/>
<path fill-rule="evenodd" clip-rule="evenodd" d="M40.3805 30.7596L42.661 35.6246C32.8561 40.62 25.4975 34.6175 23.7329 33.0255C29.4195 34.0986 36.3146 33.0624 40.3805 30.7596Z" fill="white"/>
<path fill-rule="evenodd" clip-rule="evenodd" d="M45.4829 38.611C43.8707 38.8874 39.8353 39.4509 38.939 38.1365C40.578 37.7818 42.8756 36.8052 43.5219 36.5226C44.1052 37.3171 44.7638 38.0186 45.4829 38.611Z" fill="white"/>
</g>
<defs>
<clipPath id="clip0_38_367">
<rect width="50" height="38.2258" fill="white" transform="translate(0 0.746979)"/>
</clipPath>
</defs>
</svg>
